<svg version="1.1" id="Layer_1" xmlns="http://www.w3.org/2000/svg" xmlns:xlink="http://www.w3.org/1999/xlink" x="0px" y="0px"
	 width="px" height="24px" viewBox="0 0 600 600" enable-background="new 0 0 600 600" xml:space="preserve">
<g>
	<path fill="#9B5C8F" d="M63.829,127.375h472.105c29.878,0,54.065,24.187,54.065,54.063v180.211
		c0,29.878-24.188,54.065-54.065,54.065H366.632l23.236,56.91l-102.198-56.91H64.065c-29.877,0-54.063-24.188-54.063-54.065V181.438
		C9.765,151.799,33.951,127.375,63.829,127.375L63.829,127.375z"/>
	<path fill="#FFFFFF" d="M43.028,176.651c3.301-4.479,8.252-6.838,14.854-7.309c12.024-0.942,18.862,4.716,20.513,16.976
		c7.309,49.276,15.325,91.009,23.813,125.196l51.634-98.317c4.716-8.959,10.61-13.676,17.683-14.147
		c10.375-0.707,16.74,5.894,19.334,19.806c5.894,31.357,13.438,57.999,22.398,80.633c6.13-59.885,16.503-103.032,31.121-129.676
		c3.537-6.601,8.724-9.902,15.561-10.374c5.423-0.471,10.375,1.179,14.854,4.716c4.48,3.536,6.838,8.016,7.309,13.438
		c0.236,4.244-0.471,7.78-2.357,11.317c-9.195,16.976-16.74,45.504-22.87,85.114c-5.894,38.43-8.017,68.375-6.602,89.828
		c0.471,5.895-0.472,11.084-2.829,15.563c-2.83,5.188-7.073,8.015-12.496,8.487c-6.13,0.474-12.497-2.358-18.626-8.722
		c-21.927-22.398-39.375-55.879-52.107-100.44c-15.325,30.18-26.642,52.814-33.951,67.904
		c-13.91,26.644-25.698,40.315-35.601,41.024c-6.367,0.469-11.79-4.953-16.504-16.271c-12.025-30.889-24.992-90.536-38.903-178.951
		C38.313,186.318,39.728,180.896,43.028,176.651z M549.703,213.668c-8.487-14.854-20.983-23.813-37.725-27.35
		c-4.479-0.942-8.724-1.415-12.731-1.415c-22.636,0-41.021,11.79-55.406,35.366c-12.26,20.041-18.391,42.204-18.391,66.489
		c0,18.154,3.774,33.717,11.319,46.682c8.486,14.854,20.982,23.812,37.724,27.353c4.478,0.941,8.722,1.412,12.729,1.412
		c22.869,0,41.261-11.789,55.406-35.365c12.262-20.275,18.391-42.438,18.391-66.722C561.255,241.726,557.248,226.4,549.703,213.668z
		 M519.996,278.979c-3.302,15.561-9.195,27.111-17.917,34.895c-6.839,6.129-13.205,8.723-19.099,7.545
		c-5.66-1.182-10.375-6.133-13.913-15.328c-2.827-7.306-4.243-14.615-4.243-21.454c0-5.894,0.474-11.788,1.65-17.211
		c2.124-9.667,6.131-19.098,12.495-28.057c7.782-11.553,16.032-16.268,24.521-14.617c5.658,1.178,10.375,6.13,13.91,15.325
		c2.83,7.309,4.243,14.618,4.243,21.455C521.646,267.661,521.175,273.556,519.996,278.979z M402.11,213.668
		c-8.489-14.854-21.221-23.813-37.724-27.35c-4.48-0.942-8.726-1.415-12.733-1.415c-22.634,0-41.024,11.79-55.405,35.366
		c-12.261,20.041-18.391,42.204-18.391,66.489c0,18.154,3.772,33.717,11.317,46.682c8.487,14.854,20.985,23.812,37.725,27.353
		c4.479,0.941,8.722,1.412,12.73,1.412c22.868,0,41.26-11.789,55.406-35.365c12.262-20.275,18.39-42.438,18.39-66.722
		C413.427,241.726,409.655,226.4,402.11,213.668z M372.168,278.979c-3.301,15.561-9.194,27.111-17.922,34.895
		c-6.836,6.129-13.201,8.723-19.096,7.545c-5.657-1.182-10.375-6.133-13.91-15.328c-2.83-7.306-4.244-14.615-4.244-21.454
		c0-5.894,0.472-11.788,1.651-17.211c2.121-9.667,6.128-19.098,12.496-28.057c7.778-11.553,16.031-16.268,24.519-14.617
		c5.66,1.178,10.375,6.13,13.913,15.325c2.827,7.309,4.243,14.618,4.243,21.455C374.054,267.661,373.346,273.556,372.168,278.979
		L372.168,278.979L372.168,278.979z"/>
</g>
</svg>